<svg xmlns="http://www.w3.org/2000/svg" xmlns:xlink="http://www.w3.org/1999/xlink" version="1.1" width="21" height="20" enable-background="new 0 0 21 20" xml:space="preserve" style=""><rect id="backgroundrect" width="100%" height="100%" x="0" y="0" fill="none" stroke="none" data-darkreader-inline-fill="" data-darkreader-inline-stroke="" style="--darkreader-inline-fill:none; --darkreader-inline-stroke:none;"/>

<g class="currentLayer" style=""><title>Корзина</title><path fill="#e84d37" fill-opacity="1" stroke="#e84d37" stroke-opacity="1" stroke-width="1" stroke-dasharray="none" stroke-linejoin="miter" stroke-linecap="butt" stroke-dashoffset="" fill-rule="nonzero" opacity="1" marker-start="" marker-mid="" marker-end="" id="svg_6" d="M 5.772726095535539 3.9545449926094602 C 5.772726095535539 3.9545449926094602 6.681817004626445 12.863635901700366 6.681817004626445 12.863635901700366 C 6.681817004626445 12.863635901700366 17.40908973189918 13.045454083518548 17.40908973189918 13.045454083518548 C 17.40908973189918 13.045454083518548 18.499998822808266 3.9545449926094602 18.499998822808266 3.9545449926094602 C 18.499998822808266 3.9545449926094602 5.772726095535539 3.9545449926094602 5.772726095535539 3.9545449926094602 z" style="color: rgb(232, 77, 55);" class="selected"/><g id="svg_1" class="" fill="#000000" fill-opacity="1">
	<path fill="#000000" d="M5.657,2.121909093618393 L5.422,0.09090909361839294 H0 v2 h3.64 l1.5,13 h13.988 l1.6990000000000003,-12.969 H5.657 zM17.372,13.090909093618393 H6.922 L5.888,4.121909093618393 h12.66 L17.372,13.090909093618393 z" id="svg_2" data-darkreader-inline-fill="" style="--darkreader-inline-fill:#fbf7f1;" fill-opacity="1"/>
	<circle fill="#000000" cx="6.984000205993652" cy="18.090909093618393" r="2" id="svg_3" data-darkreader-inline-fill="" style="--darkreader-inline-fill:#fbf7f1;" fill-opacity="1"/>
	<circle fill="#000000" cx="15.984000205993652" cy="18.090909093618393" r="2" id="svg_4" data-darkreader-inline-fill="" style="--darkreader-inline-fill:#fbf7f1;" fill-opacity="1"/>
</g><path fill="#000000" fill-opacity="1" stroke="#000000" stroke-opacity="1" stroke-width="1" stroke-dasharray="none" stroke-linejoin="miter" stroke-linecap="butt" stroke-dashoffset="" fill-rule="nonzero" opacity="1" marker-start="" marker-mid="" marker-end="" id="svg_5" d="M5.772726095535539,4.090908562595196 " style="color: rgb(0, 0, 0);"/></g></svg>